<svg width="82" height="92" viewBox="0 0 82 92" fill="none" xmlns="http://www.w3.org/2000/svg">
<path d="M80.9751 37.3243C63.4853 43.129 46.1899 31.5197 28.7001 37.3243C28.7001 27.7748 28.7001 18.2252 28.7001 8.67565C46.1899 2.87102 63.4853 14.4803 80.9751 8.67565C80.9751 18.2252 80.9751 27.7748 80.9751 37.3243Z" fill="#FF6633"/>
<path d="M62.5249 9.71173V38.5C51.2499 37.0209 39.9749 33.7971 28.6999 37.31V8.60238C39.9749 5.08946 51.2499 8.23261 62.5249 9.71173Z" fill="#ED4611"/>
<path d="M55.3501 31.272C37.8603 37.258 20.5649 25.286 3.0751 31.272C3.0751 21.424 3.0751 11.576 3.0751 1.72802C20.5649 -4.25801 37.8603 7.71405 55.3501 1.72802C55.3501 11.576 55.3501 21.424 55.3501 31.272Z" fill="#FF6633"/>
<path d="M2.5625 92C4.1 92 5.125 91.217 5.125 90.0425V1.95745C5.125 0.782979 4.1 0 2.5625 0C1.025 0 0 0.782979 0 1.95745V89.8468C0 91.0213 1.025 92 2.5625 92Z" fill="#FF6633"/>
</svg>
