<svg width="157" height="32" viewBox="0 0 157 32" fill="none" xmlns="http://www.w3.org/2000/svg">
<g clip-path="url(#clip0_2149_1098)">
<path d="M31.0223 0.858398L19.6423 11.3169L8.22326 0.858398L0 32.0779H3.70241L10.2109 7.29742L19.6423 15.9608L29.0347 7.29742L35.5821 32.0779H39.2456L31.0223 0.858398Z" fill="white"/>
<path d="M19.6423 17.7953L11.1462 10.1465L5.61206 32.0782H9.2755L13.1728 16.5465L19.6033 22.4001L26.0728 16.5855L29.97 32.0782H33.6335L28.0994 10.1465L19.6423 17.7953Z" fill="white"/>
<path d="M26.1119 23.0636L25.2934 19.2392L16.1738 27.1611L17.2651 22.166L13.9524 19.1611L11.1853 32.0782H15.1216L19.2527 28.6831L23.072 32.0782H27.9826L21.8249 26.5758L26.1119 23.0636Z" fill="white"/>
<path d="M46.6504 1.91211H48.677L49.9241 6.16577L51.2102 1.91211H53.2368L54.2891 8.89748H52.3404L51.7948 4.83894L50.5867 8.89748H49.3006L48.0924 4.83894L47.5468 8.89748H45.5981L46.6504 1.91211Z" fill="white"/>
<path d="M57.2901 1.91211H59.7453L62.3175 8.89748H60.174L59.7843 7.68772H57.2901L56.9003 8.89748H54.7568L57.2901 1.91211ZM57.7188 6.16577H59.3556L58.5372 3.59016L57.7188 6.16577Z" fill="white"/>
<path d="M63.019 1.91211H67.345V3.59016H65.0456V8.89748H63.019V1.91211Z" fill="white"/>
<path d="M68.1633 1.91211H70.1899V4.44869H72.6062V1.91211H74.6328V8.89748H72.6062V6.12674H70.1899V8.89748H68.1633V1.91211Z" fill="white"/>
<path d="M77.9066 1.91211V6.12674L80.7127 1.91211H82.7003V8.89748H80.7516V4.72187L77.9456 8.89748H75.958V1.91211H77.9066Z" fill="white"/>
<path d="M85.0386 3.59016H83.4797V1.91211H88.6631V3.59016H87.0652V8.89748H85.0386V3.59016Z" fill="white"/>
<path d="M89.0918 5.42411C89.0918 3.55094 90.3389 1.7168 92.9501 1.7168C95.6003 1.7168 96.8084 3.55094 96.8084 5.42411C96.8084 7.29729 95.5613 9.13143 92.9501 9.13143C90.3389 9.09241 89.0918 7.25826 89.0918 5.42411ZM94.7429 5.42411C94.7429 4.05826 93.8855 3.39485 92.9501 3.39485C92.0148 3.39485 91.1574 4.05826 91.1574 5.42411C91.1574 6.78997 92.0148 7.45338 92.9501 7.45338C93.8855 7.41436 94.7429 6.75094 94.7429 5.42411Z" fill="white"/>
<path d="M97.8218 1.91211H102.148V3.59016H99.8484V8.89748H97.8218V1.91211Z" fill="white"/>
<path d="M102.615 5.42411C102.615 3.55094 103.863 1.7168 106.474 1.7168C109.124 1.7168 110.332 3.55094 110.332 5.42411C110.332 7.29729 109.085 9.13143 106.474 9.13143C103.863 9.09241 102.615 7.25826 102.615 5.42411ZM108.267 5.42411C108.267 4.05826 107.409 3.39485 106.474 3.39485C105.538 3.39485 104.681 4.05826 104.681 5.42411C104.681 6.78997 105.538 7.45338 106.474 7.45338C107.409 7.41436 108.267 6.75094 108.267 5.42411Z" fill="white"/>
<path d="M111.345 1.91211H114.385C116.451 1.91211 116.996 3.27796 116.996 4.25357C116.996 5.22918 116.412 6.59504 114.385 6.59504H113.372V8.89748H111.345V1.91211ZM113.372 5.07309H113.956C114.853 5.07309 114.931 4.56577 114.931 4.25357C114.931 3.90235 114.814 3.47308 113.956 3.47308H113.372V5.07309Z" fill="white"/>
<path d="M123.349 8.58505C122.686 9.01432 122.024 9.09237 121.4 9.09237C119.257 9.09237 117.698 7.64847 117.698 5.38505C117.698 3.04359 119.413 1.67773 121.361 1.67773C121.985 1.67773 122.725 1.83383 123.349 2.22408V4.29237C122.959 3.8631 122.413 3.47286 121.634 3.47286C120.504 3.47286 119.802 4.33139 119.802 5.4631C119.802 6.51676 120.504 7.33627 121.634 7.33627C122.374 7.33627 122.959 6.94603 123.349 6.59481V8.58505Z" fill="white"/>
<path d="M124.518 1.91211H126.505V4.83894L128.688 1.91211H131.065L128.337 5.30723L131.143 8.89748H128.61L126.505 5.8926V8.89748H124.518V1.91211Z" fill="white"/>
<path d="M133.793 1.91211V6.12674L136.56 1.91211H138.548V8.89748H136.599V4.72187L133.832 8.89748H131.845V1.91211H133.793Z" fill="white"/>
<path d="M141.822 1.91219V6.0878L144.628 1.91219H146.616V8.89756H144.667V4.72195L141.861 8.89756H139.873V1.91219H141.822ZM145.407 0.429268C145.018 1.24878 144.082 1.56098 143.264 1.56098C142.407 1.56098 141.51 1.24878 141.12 0.429268L142.29 0C142.484 0.468293 142.913 0.585366 143.303 0.585366C143.693 0.585366 144.121 0.468293 144.316 0L145.407 0.429268Z" fill="white"/>
<path d="M46.6504 13.502H48.677L49.9241 17.7556L51.2102 13.502H53.2368L54.2891 20.4873H52.3404L51.7948 16.4288L50.5867 20.4873H49.3006L48.0924 16.4288L47.5468 20.4873H45.5981L46.6504 13.502Z" fill="white"/>
<path d="M55.1465 13.502H59.4725V15.18H57.1731V16.1556H59.2386V17.6776H57.1731V18.8093H59.4725V20.4873H55.1465V13.502Z" fill="white"/>
<path d="M61.6939 15.18H60.135V13.502H65.3184V15.18H63.7205V20.4873H61.6939V15.18Z" fill="white"/>
<path d="M67.5008 13.502H69.9561L72.5283 20.4873H70.3848L69.9951 19.2776H67.5398L67.1501 20.4873H65.0066L67.5008 13.502ZM67.8906 17.7556H69.5274L68.709 15.18L67.8906 17.7556Z" fill="white"/>
<path d="M79.8163 13.502V20.4873H77.7897V15.18H76.3477V17.9507C76.3477 18.9654 76.2308 20.6044 73.7366 20.6044C73.4248 20.6044 73.2299 20.6044 72.8792 20.5263V18.8483C73.035 18.8873 73.1909 18.9263 73.3079 18.9263C74.2042 18.9263 74.3211 18.38 74.3211 17.4044V13.541H79.8163V13.502Z" fill="white"/>
<path d="M87.455 13.502V20.4873H85.4284V15.18H83.9864V17.9507C83.9864 18.9654 83.8695 20.6044 81.3752 20.6044C81.0634 20.6044 80.8686 20.6044 80.5178 20.5263V18.8483C80.6737 18.8873 80.8296 18.9263 80.9465 18.9263C81.8429 18.9263 81.9598 18.38 81.9598 17.4044V13.541H87.455V13.502Z" fill="white"/>
<path d="M90.5729 13.502L92.0149 16.4288L93.1451 13.502H95.3276L92.0928 20.4873H89.9493L90.9236 18.5361L88.1956 13.502H90.5729Z" fill="white"/>
<path d="M96.0288 13.502H99.0687C101.134 13.502 101.68 14.8678 101.68 15.8434C101.68 16.819 101.095 18.1849 99.0687 18.1849H98.0554V20.4873H96.0288V13.502ZM98.0554 16.6239H98.64C99.5364 16.6239 99.6143 16.1166 99.6143 15.8044C99.6143 15.4532 99.4974 15.0239 98.64 15.0239H98.0554V16.6239Z" fill="white"/>
<path d="M102.576 13.502H106.902V15.18H104.603V20.4873H102.576V13.502Z" fill="white"/>
<path d="M109.669 13.502V17.6776L112.475 13.502H114.424V20.4873H112.475V16.2727L109.708 20.4873H107.721V13.502H109.669Z" fill="white"/>
<path d="M119.296 17.7556C118.555 17.8727 118.399 17.8727 117.932 17.8727C115.476 17.8727 115.398 16.702 115.398 15.5312V13.502H117.425V15.2581C117.425 15.8044 117.425 16.3117 118.555 16.3117C118.711 16.3117 118.945 16.2727 119.335 16.2337V13.502H121.361V20.4873H119.335V17.7556H119.296Z" fill="white"/>
<path d="M122.647 13.502H126.973V15.18H124.674V16.1556H126.779V17.6776H124.674V18.8093H126.973V20.4873H122.647V13.502Z" fill="white"/>
<path d="M133.365 20.1759C132.702 20.6051 132.04 20.6832 131.416 20.6832C129.273 20.6832 127.714 19.2393 127.714 16.9759C127.714 14.6344 129.429 13.2686 131.377 13.2686C132.001 13.2686 132.741 13.4247 133.365 13.8149V15.8442C132.975 15.4149 132.43 15.0247 131.65 15.0247C130.52 15.0247 129.818 15.8832 129.818 17.0149C129.818 18.0686 130.52 18.8881 131.65 18.8881C132.391 18.8881 132.975 18.4978 133.365 18.1466V20.1759Z" fill="white"/>
<path d="M134.534 13.502H136.522V16.4288L138.704 13.502H141.081L138.353 16.8581L141.159 20.4873H138.626L136.522 17.4824V20.4873H134.534V13.502Z" fill="white"/>
<path d="M143.809 13.502V17.6776L146.577 13.502H148.564V20.4873H146.616V16.2727L143.848 20.4873H141.861V13.502H143.809Z" fill="white"/>
<path d="M151.838 13.502V17.6776L154.644 13.502H156.631V20.4874H154.683V16.2727L151.877 20.4483H149.889V13.502H151.838ZM155.423 11.98C155.034 12.7996 154.098 13.1118 153.28 13.1118C152.422 13.1118 151.526 12.7996 151.136 11.98L152.305 11.5508C152.5 12.0191 152.929 12.1361 153.319 12.1361C153.708 12.1361 154.137 12.0191 154.332 11.5508L155.423 11.98Z" fill="white"/>
<path d="M46.1047 25.0537H48.1313V28.0196L50.3138 25.0537H52.6522L49.9241 28.4488L52.7301 32.0781H50.1969L48.1313 29.0732V32.0781H46.1047V25.0537Z" fill="white"/>
<path d="M52.6133 28.5657C52.6133 26.6925 53.8604 24.8584 56.4716 24.8584C59.1217 24.8584 60.3299 26.6925 60.3299 28.5657C60.3299 30.4389 59.0828 32.273 56.4716 32.273C53.8214 32.273 52.6133 30.4389 52.6133 28.5657ZM58.2643 28.5657C58.2643 27.1999 57.4069 26.5364 56.4716 26.5364C55.5362 26.5364 54.6788 27.1999 54.6788 28.5657C54.6788 29.9316 55.5362 30.595 56.4716 30.595C57.4069 30.595 58.2643 29.9316 58.2643 28.5657Z" fill="white"/>
<path d="M61.8499 25.0537H63.8375L65.1236 29.3464L66.3707 25.0537H68.3973L69.4496 32.0781H67.5009L66.9943 28.0196L65.7471 32.0781H64.461L63.2529 28.0196L62.7073 32.0781H60.7976L61.8499 25.0537Z" fill="white"/>
<path d="M70.3069 25.0537H75.6462V26.7318H72.3335V27.7854H73.3857C73.9314 27.7854 76.2308 27.7854 76.2308 29.8927C76.2308 32.0781 73.9314 32.0781 73.3857 32.0781H70.3069V25.0537ZM73.1909 30.6732C73.8144 30.6732 74.2042 30.4781 74.2042 29.9318C74.2042 29.3854 73.8144 29.1903 73.1909 29.1903H72.3335V30.6732H73.1909Z" fill="white"/>
<path d="M79.1147 25.0537V29.2683L81.9207 25.0537H83.8693V32.0781H81.9597V27.8635L79.1536 32.0781H77.166V25.0537H79.1147Z" fill="white"/>
<path d="M85.2334 25.0537H87.26V27.5903H89.7153V25.0537H91.7029V32.0781H89.7153V29.2683H87.26V32.0781H85.2334V25.0537Z" fill="white"/>
<path d="M94.9766 25.0537H97.4319L100.004 32.0391H97.8216L97.4319 30.8293H94.9766L94.5869 32.0391H92.4434L94.9766 25.0537ZM95.4053 29.3074H97.0421L96.2237 26.7318L95.4053 29.3074Z" fill="white"/>
<path d="M101.212 26.7318H99.6145V25.0537H104.798V26.7318H103.239V32.0781H101.212V26.7318Z" fill="white"/>
</g>
<defs>
<clipPath id="clip0_2149_1098">
<rect width="156.632" height="32" fill="white"/>
</clipPath>
</defs>
</svg>
