<svg width="40" height="40" viewBox="0 0 40 40" fill="none" xmlns="http://www.w3.org/2000/svg">
<path d="M0 6C0 2.68629 2.68629 0 6 0H34C37.3137 0 40 2.68629 40 6V34C40 37.3137 37.3137 40 34 40H6C2.68629 40 0 37.3137 0 34V6Z" fill="#4D6AAC"/>
<path d="M18 10H22C22.5304 10 23.0391 10.2107 23.4142 10.5858C23.7893 10.9609 24 11.4696 24 12V14H28C28.5304 14 29.0391 14.2107 29.4142 14.5858C29.7893 14.9609 30 15.4696 30 16V27C30 27.5304 29.7893 28.0391 29.4142 28.4142C29.0391 28.7893 28.5304 29 28 29H12C11.4696 29 10.9609 28.7893 10.5858 28.4142C10.2107 28.0391 10 27.5304 10 27V16C10 14.89 10.89 14 12 14H16V12C16 10.89 16.89 10 18 10ZM22 14V12H18V14H22ZM20 17L15 22H18V26H22V22H25L20 17Z" fill="#DFE4F5"/>
</svg>
