<svg width="359" height="607" viewBox="0 0 359 607" fill="none" xmlns="http://www.w3.org/2000/svg">
<path d="M257.975 37.3243C240.485 43.129 223.19 31.5197 205.7 37.3243C205.7 27.7748 205.7 18.2252 205.7 8.67565C223.19 2.87102 240.485 14.4803 257.975 8.67565C257.975 18.2252 257.975 27.7748 257.975 37.3243Z" fill="#FF6633"/>
<path d="M239.525 9.71173V38.5C228.25 37.0209 216.975 33.7971 205.7 37.31V8.60238C216.975 5.08946 228.25 8.23261 239.525 9.71173Z" fill="#ED4611"/>
<path d="M232.35 31.272C214.86 37.258 197.565 25.286 180.075 31.272C180.075 21.424 180.075 11.576 180.075 1.72802C197.565 -4.25801 214.86 7.71405 232.35 1.72802C232.35 11.576 232.35 21.424 232.35 31.272Z" fill="#FF6633"/>
<path d="M179.562 92C181.1 92 182.125 91.217 182.125 90.0426V1.95745C182.125 0.782979 181.1 0 179.562 0C178.025 0 177 0.782979 177 1.95745V89.8468C177 91.0213 178.025 92 179.562 92Z" fill="#FF6633"/>
<path d="M214.047 106.104H144.941L1.09898 574.514C-3.75399 590.212 8.08725 606.104 24.3932 606.104H334.595C351.095 606.104 362.742 590.212 357.889 574.514L214.047 106.104Z" fill="#E4E9FC"/>
<path d="M144.353 106.104H161L42.339 606.104H24.3366C7.88276 606.104 -3.7317 590.212 1.10766 574.514L144.353 106.104Z" fill="#F3F6FF"/>
<path d="M213.711 106.104H179.032L135 606.104H334.506C351.066 606.104 362.756 590.212 357.885 574.514L213.711 106.104Z" fill="#DAE1FA"/>
<path d="M214.299 106.104H198L247.286 606.104H334.605C351.098 606.104 362.741 590.212 357.89 574.514L214.299 106.104Z" fill="#D2DCFE"/>
<path d="M178.825 89.1035C199.468 89.1035 217.411 103.094 222.813 123.109L245 206.083L239.019 232.316L216.639 210.747L195.224 260.104L175.738 225.709L151.621 260.104L141.203 208.609L119.209 237.951L114 204.14L134.837 123.498C140.046 103.289 158.181 89.1035 178.825 89.1035Z" fill="#EDF0FA"/>
</svg>
